<svg xmlns="http://www.w3.org/2000/svg" width="19" height="19" fill="none" viewBox="0 0 19 19"><path fill-rule="evenodd" stroke="#4360DF" stroke-linecap="round" stroke-linejoin="round" stroke-opacity=".5" stroke-width="2" d="M9.13043 17.2618C13.6207 17.2618 17.2609 13.6217 17.2609 9.13141C17.2609 4.6411 13.6207 1.00098 9.13043 1.00098C4.64012 1.00098 1 4.6411 1 9.13141C1 13.6217 4.64012 17.2618 9.13043 17.2618Z" clip-rule="evenodd"/><path stroke="#4360DF" stroke-linecap="round" stroke-linejoin="round" stroke-width="1.5" d="M9.13055 13.1848C9.0285 13.1848 8.94577 13.2675 8.94577 13.3696C8.94577 13.4716 9.0285 13.5543 9.13055 13.5543C9.2326 13.5543 9.31533 13.4716 9.31533 13.3696C9.31533 13.2675 9.2326 13.1848 9.13055 13.1848V13.1848"/><path stroke="#4360DF" stroke-linecap="round" stroke-linejoin="round" stroke-width="2" d="M6.91309 7.21723C6.91325 6.10981 7.73045 5.1723 8.82749 5.02098C9.92452 4.86965 10.965 5.55093 11.265 6.61695C11.5649 7.68297 11.0324 8.80687 10.0174 9.24984C9.47872 9.48495 9.13049 10.0169 9.13048 10.6047V10.9092"/></svg>